<?xml version="1.0" encoding="UTF-8"?>
<svg xmlns="http://www.w3.org/2000/svg" xmlns:xlink="http://www.w3.org/1999/xlink" width="30px" height="30px" viewBox="0 0 30 30" version="1.1">
<g id="surface1">
<path style=" stroke:none;fill-rule:nonzero;fill:rgb(100%,100%,100%);fill-opacity:1;" d="M 15 0 C 6.714844 0 0 6.714844 0 15 C 0 23.285156 6.714844 30 15 30 C 23.285156 30 30 23.285156 30 15 C 30 6.714844 23.285156 0 15 0 "/>
<path style=" stroke:none;fill-rule:nonzero;fill:rgb(13.333334%,13.333334%,13.333334%);fill-opacity:1;" d="M 21.097656 21.488281 L 19.191406 21.488281 L 19.191406 17.4375 L 10.808594 17.4375 L 10.808594 21.488281 L 8.902344 21.488281 L 8.902344 8.355469 L 10.808594 8.355469 L 10.808594 12.308594 L 19.191406 12.308594 L 19.191406 8.355469 L 21.097656 8.355469 Z M 10.898438 15.921875 L 19.28125 15.921875 L 19.28125 13.828125 L 10.898438 13.828125 Z M 10.898438 15.921875 "/>
</g>
</svg>
