<?xml version="1.0" encoding="UTF-8"?>
<svg xmlns="http://www.w3.org/2000/svg" xmlns:xlink="http://www.w3.org/1999/xlink" width="23px" height="20px" viewBox="0 0 23 20" version="1.1">
<g id="surface1">
<path style=" stroke:none;fill-rule:nonzero;fill:rgb(100%,100%,100%);fill-opacity:1;" d="M 19.753906 2.628906 L 16.984375 4.074219 L 3.609375 11.0625 C 3.566406 10.710938 3.542969 10.355469 3.542969 9.996094 C 3.546875 7.097656 5.046875 4.421875 7.480469 2.953125 C 9.917969 1.488281 12.929688 1.457031 15.394531 2.871094 L 16.980469 2.042969 L 17.214844 1.917969 C 14.253906 -0.285156 10.339844 -0.601562 7.078125 1.105469 C 3.820312 2.808594 1.769531 6.246094 1.769531 10 C 1.769531 10.253906 1.777344 10.507812 1.796875 10.761719 C 1.851562 11.492188 1.472656 12.183594 0.835938 12.515625 L 0 12.953125 L 0 14.992188 L 2.460938 13.707031 L 3.257812 13.289062 L 4.042969 12.878906 L 18.140625 5.507812 L 19.726562 4.679688 L 23 2.964844 L 23 0.929688 Z M 19.753906 2.628906 "/>
<path style=" stroke:none;fill-rule:nonzero;fill:rgb(100%,100%,100%);fill-opacity:1;" d="M 23 5.007812 L 4.84375 14.492188 L 3.261719 15.324219 L 0 17.027344 L 0 19.066406 L 3.238281 17.371094 L 6.007812 15.925781 L 19.394531 8.925781 C 19.4375 9.28125 19.460938 9.640625 19.460938 10 C 19.460938 12.902344 17.960938 15.585938 15.519531 17.050781 C 13.078125 18.515625 10.066406 18.542969 7.597656 17.125 L 7.5 17.179688 L 5.78125 18.078125 C 8.742188 20.28125 12.660156 20.597656 15.917969 18.894531 C 19.175781 17.1875 21.230469 13.753906 21.230469 10 C 21.230469 9.742188 21.222656 9.488281 21.203125 9.234375 C 21.148438 8.503906 21.527344 7.8125 22.164062 7.476562 L 23 7.039062 Z M 23 5.007812 "/>
</g>
</svg>
