<?xml version="1.0" encoding="UTF-8"?>
<svg xmlns="http://www.w3.org/2000/svg" xmlns:xlink="http://www.w3.org/1999/xlink" width="50px" height="42px" viewBox="0 0 49 42" version="1.1">
<g id="surface1">
<path style=" stroke:none;fill-rule:nonzero;fill:rgb(0%,0%,0%);fill-opacity:1;" d="M 41.832031 5.515625 L 36.015625 8.554688 L 7.933594 23.234375 C 7.839844 22.492188 7.789062 21.742188 7.789062 20.996094 C 7.796875 14.90625 10.945312 9.28125 16.0625 6.207031 C 21.175781 3.128906 27.5 3.0625 32.679688 6.027344 L 36.007812 4.289062 L 36.503906 4.027344 C 30.285156 -0.601562 22.0625 -1.261719 15.214844 2.320312 C 8.371094 5.898438 4.0625 13.117188 4.066406 21 C 4.066406 21.535156 4.085938 22.066406 4.125 22.597656 C 4.238281 24.132812 3.441406 25.582031 2.105469 26.28125 L 0.351562 27.199219 L 0.351562 31.484375 L 5.519531 28.78125 L 7.191406 27.90625 L 8.839844 27.042969 L 38.449219 11.566406 L 41.773438 9.828125 L 48.648438 6.230469 L 48.648438 1.949219 Z M 41.832031 5.515625 "/>
<path style=" stroke:none;fill-rule:nonzero;fill:rgb(0%,0%,0%);fill-opacity:1;" d="M 48.648438 10.515625 L 10.523438 30.433594 L 7.195312 32.179688 L 0.351562 35.757812 L 0.351562 40.035156 L 7.148438 36.484375 L 12.964844 33.445312 L 41.074219 18.746094 C 41.171875 19.492188 41.222656 20.246094 41.222656 21 C 41.214844 27.09375 38.066406 32.726562 32.941406 35.804688 C 27.816406 38.882812 21.488281 38.941406 16.308594 35.964844 L 16.101562 36.074219 L 12.492188 37.960938 C 18.710938 42.59375 26.933594 43.253906 33.777344 39.675781 C 40.621094 36.097656 44.929688 28.882812 44.933594 21 C 44.933594 20.460938 44.914062 19.921875 44.875 19.390625 C 44.761719 17.855469 45.558594 16.402344 46.890625 15.703125 L 48.648438 14.785156 Z M 48.648438 10.515625 "/>
</g>
</svg>
